HIERARCHY
ROOT Hips
{
  OFFSET 25.9691 98.9511 -154.846
  CHANNELS 6 Xposition Yposition Zposition Zrotation Xrotation Yrotation
  JOINT RightUpLeg
  {
    OFFSET -8.9458 -8.66707 0.101652
    CHANNELS 3 Zrotation Xrotation Yrotation
    JOINT RightLeg
    {
      OFFSET 0 -44.4227 1.3727
      CHANNELS 3 Zrotation Xrotation Yrotation
      JOINT RightFoot
      {
        OFFSET 0.253549 -42.0924 -1.46059
        CHANNELS 3 Zrotation Xrotation Yrotation
        JOINT RightToes
        {
          OFFSET 0.04 -4.41509 8.4991
          CHANNELS 3 Zrotation Xrotation Yrotation
          End Site
          {
            OFFSET -0.08 -0.137448 9.77979
          }
        }
      }
    }
  }
  JOINT Spine
  {
    OFFSET 0 11.8905 0
    CHANNELS 3 Zrotation Xrotation Yrotation
    JOINT Spine1
    {
      OFFSET 0 25.6574 0.127663
      CHANNELS 3 Zrotation Xrotation Yrotation
      JOINT HEad
      {
        OFFSET 0 8.73416 0.011341
        CHANNELS 3 Zrotation Xrotation Yrotation
        End Site
        {
          OFFSET -0.29 12.7742 2.51395
        }
      }
      JOINT LeftShoulder1
      {
        OFFSET 8.99 -0.362252 -0.22
        CHANNELS 3 Zrotation Xrotation Yrotation
        JOINT LeftArm
        {
          OFFSET 10.2827 -0.00338 0.322123
          CHANNELS 3 Zrotation Xrotation Yrotation
          JOINT LeftForeArm
          {
            OFFSET 32.7669 0.099144 -1.42434
            CHANNELS 3 Zrotation Xrotation Yrotation
            JOINT LeftHand
            {
              OFFSET 27.5643 0.085362 1.02216
              CHANNELS 3 Zrotation Xrotation Yrotation
              End Site
              {
                OFFSET 16.7443 -0.6 1.50291
              }
            }
          }
        }
      }
      JOINT RightShoulder
      {
        OFFSET -8.99 -0.362252 -0.22
        CHANNELS 3 Zrotation Xrotation Yrotation
        JOINT RightArm
        {
          OFFSET -10.2827 -0.00338 0.322123
          CHANNELS 3 Zrotation Xrotation Yrotation
          JOINT RightForeArm
          {
            OFFSET -32.8971 0.099144 -1.42434
            CHANNELS 3 Zrotation Xrotation Yrotation
            JOINT RightHand
            {
              OFFSET -27.4921 0.085362 1.02216
              CHANNELS 3 Zrotation Xrotation Yrotation
              End Site
              {
                OFFSET -16.6312 -0.6 1.50291
              }
            }
          }
        }
      }
    }
  }
  JOINT LeftUpLeg
  {
    OFFSET 8.9458 -8.66707 0.101652
    CHANNELS 3 Zrotation Xrotation Yrotation
    JOINT LeftLeg
    {
      OFFSET 0 -44.4227 1.3727
      CHANNELS 3 Zrotation Xrotation Yrotation
      JOINT LeftFoot
      {
        OFFSET -0.253549 -42.0924 -1.46059
        CHANNELS 3 Zrotation Xrotation Yrotation
        JOINT LeftToes
        {
          OFFSET -0.04 -4.41509 8.4991
          CHANNELS 3 Zrotation Xrotation Yrotation
          End Site
          {
            OFFSET 0.08 -0.047448 9.77979
          }
        }
      }
    }
  }
}
MOTION
Frames:	21
Frame Time:	0.0166667
23.5842 98.8965 -180.842 2.56984 -0.00520553 -2.06336 -11.4563 -0.474045 -1.87466 19.5343 36.7972 -25.9265 18.1322 -15.5506 1.69638 0.0462048 0.000533964 0.662642 0.0140205 3.04762 -0.762465 -5.21928 19.229 1.01192 1.45982 -6.09034 7.41382 3.97569e-016 -3.18055e-015 -1.98785e-016 -88.6813 -42.4227 -5.97856 -22.2839 15.0087 -20.0457 0.368473 9.90896 -0.00117927 -6.84757 0.123476 1.58105 96.6258 -29.2013 26.0769 24.7108 13.654 9.88503 -0.369625 9.91382 0.00119887 1.05582 -30.107 2.64674 -14.5955 29.8244 36.562 4.51179 1.80745 -0.125808 2.61768e-011 -5.27089e-011 1.50567e-011 
23.8295 98.8729 -179.747 2.85579 0.0389871 -2.08882 -12.3595 -1.62077 -2.88227 19.7611 39.7506 -26.5706 18.2896 -13.9743 1.45842 -4.12415 -2.68024 1.31925 -0.786659 3.18206 -0.711725 -5.48203 19.3337 1.03201 1.76427 -5.82496 7.4383 2.98177e-016 0 3.97569e-016 -88.5686 -41.7287 -6.13051 -22.4492 15.0798 -20.6304 0.368473 9.90896 -0.00117927 -6.7194 0.123477 1.56086 96.4349 -29.9739 25.543 24.5671 13.433 8.86973 -0.369625 9.91382 0.00119887 0.76027 -29.8192 2.41082 -15.327 30.4574 36.9505 4.4918 0.999252 -0.0884587 -1.67533 -0.669383 0.2201 
24.0652 98.7977 -178.673 3.17351 0.0736915 -2.12275 -13.3345 -2.91744 -3.90711 20.1251 42.9553 -27.3746 18.5144 -12.4304 1.22954 -8.06857 -4.94098 1.83372 -1.64348 3.31966 -0.647675 -5.74617 19.489 1.05325 2.01277 -5.6268 7.44506 -2.20695e-032 3.18055e-015 3.97569e-016 -88.4862 -41.0526 -6.36677 -22.5876 15.147 -21.1816 0.368473 9.90896 -0.00117927 -6.60734 0.123481 1.50795 96.2359 -30.726 25.0096 24.4185 13.2322 7.9643 -0.369625 9.91382 0.00119887 0.463368 -29.5919 2.19618 -16.121 31.1881 37.3946 4.46713 0.129142 -0.0482817 -3.23835 -1.35599 0.387337 
24.2767 98.582 -177.653 3.57747 0.0733439 -2.15773 -14.4891 -4.59205 -5.01773 20.8446 46.8988 -28.5431 18.9462 -10.9737 1.02036 -11.8732 -5.89148 1.8855 -2.65732 3.46845 -0.543858 -6.01308 19.8023 1.0784 2.10504 -5.62617 7.3888 -6.95746e-016 -3.18055e-015 1.98785e-016 -88.5088 -40.4299 -6.85602 -22.653 15.2009 -21.605 0.368473 9.90896 -0.00117927 -6.53542 0.123489 1.34685 96.0297 -31.4272 24.4563 24.278 13.0988 7.35793 -0.369625 9.91382 0.00119887 0.152564 -29.5259 2.01057 -17.0881 32.1975 38.0167 4.42353 -0.938003 0.00108726 -4.27563 -2.12312 0.317916 
24.4689 98.2862 -176.671 4.03106 0.0766913 -2.2499 -15.69 -6.56032 -6.08457 21.7618 51.1357 -29.9826 19.3759 -9.57203 0.814408 -14.7597 -6.53282 1.83459 -3.74988 3.61705 -0.426403 -6.2844 20.1547 1.10389 2.1193 -5.70077 7.33365 1.19271e-015 -6.36111e-015 1.98785e-016 -88.5311 -39.8218 -7.42418 -22.6853 15.2654 -22.0475 0.368473 9.90896 -0.00117927 -6.49605 0.123497 1.17299 95.8471 -32.0734 23.9598 24.1359 13.0028 6.91098 -0.369625 9.91382 0.00119887 -0.156785 -29.5646 1.90707 -18.1454 33.3372 38.6752 4.38274 -2.04446 0.0521205 -5.61131 -2.84994 0.35135 
24.6416 97.9308 -175.732 4.52005 0.13205 -2.48224 -16.8176 -8.87915 -7.04242 22.5729 55.4745 -31.4878 19.6194 -8.13921 0.583377 -16.9414 -8.61364 2.19281 -4.89036 3.76013 -0.308029 -6.54708 20.441 1.1222 2.09237 -5.76063 7.33225 -9.93923e-016 3.18055e-015 -0 -88.4373 -39.158 -7.87456 -22.7249 15.3817 -22.7596 0.368473 9.90896 -0.00117927 -6.5123 0.123502 1.06972 95.7448 -32.6639 23.6111 23.971 12.9263 6.53785 -0.369625 9.91382 0.00119887 -0.455533 -29.7187 1.96766 -19.2316 34.5455 39.2108 4.37673 -3.02121 0.0972657 -8.52677 -3.36729 1.00556 
24.795 97.5479 -174.816 5.03309 0.185092 -2.76688 -17.8667 -11.3614 -7.77282 23.6564 59.7032 -33.2881 19.7492 -6.89213 0.375207 -15.389 -8.99646 2.20207 -6.03603 3.88755 -0.202568 -6.84557 20.7271 1.1474 2.0489 -5.83902 7.37416 -8.94531e-016 -3.18055e-015 7.95139e-016 -88.3581 -38.5748 -8.46129 -22.716 15.4803 -23.3381 0.368473 9.90896 -0.00117927 -6.51635 0.123505 0.997787 95.6617 -33.1605 23.3557 23.8207 12.873 6.26811 -0.369625 9.91382 0.00119887 -0.730887 -29.888 2.11675 -20.3354 35.7754 39.754 4.3572 -4.03727 0.142958 -11.1822 -3.88228 1.56372 
24.9273 97.1735 -173.901 5.57069 0.18811 -3.05146 -18.7404 -13.8665 -8.04496 25.3238 63.5717 -35.4825 19.7546 -5.92071 0.21062 -4.50123 -3.27097 0.932054 -7.14988 3.98936 -0.128458 -7.2455 21.0506 1.19588 2.02511 -5.94731 7.49683 1.88845e-015 0 -1.98785e-016 -88.3932 -38.2184 -9.39339 -22.6147 15.4937 -23.3507 0.368473 9.90896 -0.00117927 -6.45302 0.125923 0.965452 95.5574 -33.5151 23.1698 23.7157 12.8397 6.10049 -0.369625 9.91382 0.00119887 -0.966949 -29.9744 2.30985 -21.4382 36.9689 40.414 4.27411 -5.2853 0.19657 -11.6337 -4.60721 1.26156 
25.045 96.8169 -172.987 6.07959 0.169714 -3.31246 -19.4175 -16.3418 -8.08232 27.4358 66.9543 -38.0488 19.6778 -5.52006 0.140007 8.25592 3.0089 -0.537817 -8.18288 4.05968 -0.0846669 -7.67173 21.3907 1.25366 2.02383 -6.061 7.60932 1.09332e-015 0 3.97569e-016 -88.5162 -37.9682 -10.6023 -22.4442 15.4777 -23.1309 0.368473 9.90896 -0.00117927 -6.30755 0.129246 0.91341 95.4199 -33.7552 23.0464 23.6525 12.8288 6.04236 -0.369625 9.91382 0.00119887 -1.16769 -29.9824 2.53364 -22.5187 38.0754 41.0842 4.16768 -6.52542 0.248013 -11.5603 -5.36201 0.754393 
25.1513 96.4945 -172.069 6.50356 0.137295 -3.51335 -19.8631 -18.6801 -8.02734 29.7287 69.67 -40.8403 19.5475 -6.18943 0.251862 15.4683 4.67536 -1.37663 -9.07263 4.08845 -0.0809345 -8.09663 21.7606 1.31892 2.06683 -6.16728 7.62003 2.38542e-015 0 1.59028e-015 -88.7291 -37.7692 -12.1112 -22.2019 15.4739 -22.9161 0.368473 9.90896 -0.00117927 -5.99171 0.136283 0.761818 95.21 -33.8787 22.9983 23.6394 12.8456 6.1186 -0.369625 9.91382 0.00119887 -1.3229 -29.8853 2.75572 -23.5588 39.0231 41.7308 4.05551 -7.52359 0.286911 -12.1088 -6.07174 0.469526 
25.2547 96.2212 -171.132 6.85334 0.106759 -3.64074 -20.1342 -20.8853 -7.89278 32.1118 71.6762 -43.49 19.4091 -7.4059 0.455468 20.4568 4.93003 -1.97752 -9.82247 4.0783 -0.103368 -8.4423 22.0965 1.37124 2.13047 -6.24306 7.56786 -1.39149e-015 -3.18055e-015 -7.95139e-016 -89.0426 -37.5583 -13.8514 -21.9134 15.4505 -22.5644 0.368473 9.90896 -0.00117927 -5.67068 0.142229 0.580557 94.9629 -33.928 22.9404 23.6698 12.878 6.27573 -0.369625 9.91382 0.00119887 -1.4633 -29.6794 2.98685 -24.4811 39.8379 42.1951 3.94988 -8.45494 0.320735 -12.8418 -6.63256 0.332622 
25.3696 96.0197 -170.155 7.12012 0.101442 -3.65976 -20.2976 -22.9286 -7.75953 34.1908 72.8732 -45.2507 19.322 -8.85517 0.696185 24.5037 5.379 -2.46541 -10.4026 4.02562 -0.138514 -8.58741 22.3285 1.38231 2.19537 -6.23504 7.44781 -5.96354e-016 -3.18055e-015 5.96354e-016 -89.4773 -37.2279 -15.8003 -21.6046 15.3727 -21.935 0.368473 9.90896 -0.00117927 -5.54016 0.141053 0.414101 94.7076 -33.9354 22.7737 23.7485 12.9169 6.47488 -0.369625 9.91382 0.00119887 -1.63728 -29.3496 3.22721 -25.1667 40.5354 42.2234 3.87762 -9.43583 0.354317 -13.8611 -6.83732 0.510965 
25.4808 95.884 -169.155 7.30719 0.106392 -3.59834 -20.3438 -24.7937 -7.57651 35.5888 73.338 -46.1158 19.2764 -10.4104 0.956183 26.942 5.64688 -2.80134 -10.8507 3.93907 -0.194752 -8.63157 22.4878 1.37268 2.27211 -6.22074 7.30011 1.2921e-015 3.18055e-015 1.98785e-016 -89.965 -36.8681 -17.8192 -21.2655 15.2854 -21.2638 0.368473 9.90896 -0.00117927 -5.42052 0.139243 0.258836 94.4209 -33.9282 22.5522 23.8483 12.9589 6.69719 -0.369625 9.91382 0.00119887 -1.78347 -28.9026 3.47561 -25.6827 41.0959 42.042 3.81538 -10.4085 0.385582 -14.691 -6.92103 0.708142 
25.5725 95.8178 -168.137 7.40666 0.110379 -3.47469 -20.2619 -26.4475 -7.3072 36.2216 73.0537 -46.3129 19.2558 -11.8797 1.20224 27.3125 5.96763 -3.00917 -11.2038 3.82479 -0.276411 -8.63443 22.575 1.35271 2.36745 -6.27937 7.17859 4.96962e-016 3.18055e-015 7.95139e-016 -90.4501 -36.5834 -19.7401 -20.8834 15.234 -20.7777 0.368473 9.90896 -0.00117927 -5.15527 0.14322 0.138849 94.0659 -33.9566 22.2859 23.9411 12.9972 6.90936 -0.369625 9.91382 0.00119887 -1.82681 -28.3263 3.74573 -26.0972 41.4922 41.8648 3.73613 -11.4049 0.414853 -14.5537 -7.01771 0.602721 
25.6607 95.8145 -167.113 7.44266 0.125603 -3.28316 -20.1147 -27.9107 -6.98423 35.9981 72.1118 -45.6361 19.3083 -13.1447 1.42068 26.3132 6.11814 -3.02882 -11.4346 3.6868 -0.38217 -8.59635 22.6108 1.32543 2.47169 -6.35296 7.03725 -6.95746e-016 0 9.93923e-016 -90.9697 -36.2572 -21.6647 -20.5052 15.1968 -20.3604 0.368473 9.90896 -0.00117927 -4.87051 0.147154 0.0155034 93.7104 -33.9841 22.0058 24.0354 13.034 7.11576 -0.369625 9.91382 0.00119887 -1.8572 -27.6622 3.99352 -26.3464 41.7383 41.52 3.67751 -12.2721 0.439648 -14.4722 -7.22397 0.435464 
25.7588 95.8665 -166.101 7.43802 0.170738 -2.9969 -19.9886 -29.1975 -6.67453 35.0478 70.5735 -44.2003 19.4925 -14.0074 1.58438 24.2935 5.88758 -2.74988 -11.5207 3.5288 -0.517973 -8.5426 22.6159 1.29823 2.57234 -6.41278 6.81756 2.08724e-015 -6.36111e-015 -3.97569e-016 -91.5247 -35.7507 -23.6454 -20.1895 15.1694 -19.9759 0.368473 9.90896 -0.00117927 -4.63411 0.1464 -0.164295 93.3971 -33.9806 21.7385 24.1398 13.0761 7.34267 -0.369625 9.91382 0.00119887 -1.96465 -26.9637 4.16678 -26.3642 41.8395 40.8073 3.71 -12.7629 0.457158 -15.7886 -7.79887 0.430475 
25.858 95.9806 -165.095 7.38788 0.21517 -2.6978 -19.8209 -30.2927 -6.24965 33.6526 68.4512 -42.3525 19.7401 -14.5161 1.69363 21.8546 5.47156 -2.34849 -11.4853 3.35792 -0.666351 -8.45849 22.5898 1.26847 2.68541 -6.45011 6.61101 1.68967e-015 6.36111e-015 1.98785e-015 -92.1063 -35.2337 -25.6242 -19.8844 15.1418 -19.6111 0.368473 9.90896 -0.00117927 -4.46447 0.143828 -0.333088 93.1648 -33.9787 21.5079 24.2253 13.1024 7.49105 -0.369625 9.91382 0.00119887 -2.06087 -26.1839 4.3095 -26.2368 41.7818 40.0361 3.70652 -13.1924 0.468062 -16.7648 -8.38936 0.316605 
25.958 96.1743 -164.086 7.31632 0.213639 -2.4997 -19.5758 -31.1654 -5.51972 32.0353 65.7181 -40.3747 20.0492 -14.5264 1.72271 19.6082 4.87255 -1.90527 -11.3592 3.17922 -0.812688 -8.3464 22.535 1.23653 2.8269 -6.43023 6.5204 -5.96354e-016 -3.18055e-015 -1.98785e-016 -92.7962 -34.9124 -27.65 -19.5208 15.0778 -19.1172 0.368473 9.90896 -0.00117927 -4.43797 0.141044 -0.412762 93.1048 -34.0136 21.3791 24.2466 13.0822 7.40821 -0.369625 9.91382 0.00119887 -2.08538 -25.2389 4.43187 -26.0779 41.5086 39.5736 3.49715 -13.9568 0.471866 -15.5456 -8.6423 -0.213957 
26.0475 96.4082 -163.105 7.16209 0.228638 -2.27985 -19.231 -31.8703 -4.72385 30.3459 62.5559 -38.4493 20.2889 -14.4183 1.72471 17.864 4.46043 -1.59533 -11.096 3.00266 -0.95444 -8.18045 22.4629 1.20063 2.98594 -6.40273 6.45347 1.39149e-015 -6.36111e-015 -1.78906e-015 -93.4145 -34.527 -29.5049 -19.2054 15.0494 -18.8659 0.368473 9.90896 -0.00117927 -4.44842 0.137203 -0.48837 93.0994 -34.0488 21.2533 24.2619 13.0529 7.28112 -0.369625 9.91382 0.00119887 -2.05153 -24.2933 4.58068 -25.7421 41.1886 39.0637 3.28217 -14.5661 0.469861 -13.8397 -8.81502 -0.829657 
26.1121 96.6396 -162.193 6.82916 0.332329 -1.90092 -18.7437 -32.4716 -4.10615 28.5955 59.1645 -36.5847 20.2874 -14.6719 1.76694 17.5405 4.83113 -1.7533 -10.6132 2.84022 -1.08356 -7.90282 22.3883 1.155 3.17992 -6.40296 6.349 6.95746e-016 -3.18055e-015 1.19271e-015 -93.7501 -33.8284 -30.9598 -19.0366 15.1313 -19.2628 0.368473 9.90896 -0.00117927 -4.41593 0.130592 -0.651022 93.0528 -34.0501 21.005 24.333 13.0536 7.30443 -0.369625 9.91382 0.00119887 -1.93735 -23.5506 4.91136 -24.9618 41.0679 38.1589 3.22997 -14.4712 0.459503 -12.5392 -9.24834 -1.49456 
26.1615 96.8952 -161.316 6.44107 0.45061 -1.52051 -18.189 -32.9229 -3.49078 26.8514 55.4722 -34.9462 20.1736 -14.843 1.78342 17.3857 5.311 -1.97731 -10.0487 2.6908 -1.20197 -7.61169 22.3035 1.11194 3.33879 -6.43888 6.21661 1.39149e-015 0 -1.98785e-016 -93.8778 -33.0863 -32.0652 -18.9702 15.2808 -20.0569 0.368473 9.90896 -0.00117927 -4.33803 0.125422 -0.804429 92.9923 -34.0429 20.7808 24.4044 13.0491 7.30232 -0.369625 9.91382 0.00119887 -1.7956 -22.809 5.10228 -24.214 40.8231 37.1803 3.26684 -14.2446 0.451523 -12.2338 -9.34306 -1.62894 
